<?xml version="1.0" encoding="UTF-8"?>
<svg xmlns="http://www.w3.org/2000/svg" id="Layer_1" data-name="Layer 1" viewBox="0 0 300 55">
    <defs>
        <style>.cls-1{fill:#edb31f;}</style>
    </defs>
    <path class="cls-1" d="m46.8,41.26c-2.85,1.58-5.37,2.26-8.15,2.21-6.48-.07-9.7-7.32-9.7-13.89v-13.87s-.12-1.55-.38-2.45c-.16-.52-.52-1.32-.52-1.32h6.64s-.26.54-.38.9c-.35,1.04-.52,2.87-.52,2.87v15.33c0,6.01,3.84,8.76,6.92,8.81,3.89.02,7.68-2.73,7.68-7.91V15.7s-.12-1.7-.45-2.71c-.14-.42-.45-1.06-.45-1.06h6.64s-.35.57-.49.92c-.42,1.01-.4,2.85-.4,2.85v23.67s.21,1.65.49,2.64c.14.42.4,1.13.4,1.13h-6.64s.4-.71.57-1.18c.19-.59.33-1.6.33-1.6l-1.6.89Z"></path>
    <path class="cls-1" d="m80.83,43.14l-15.26-20.56v16.79s.16,1.7.49,2.71c.12.4.4,1.06.4,1.06h-6.64s.35-.71.52-1.13c.33-.97.38-2.64.38-2.64V15.73s-1.01-1.25-1.72-1.93c-.85-.78-2.43-1.84-2.43-1.84l7.02-.02,16.77,22.63V15.7s-.12-1.41-.35-2.24c-.14-.61-.54-1.53-.54-1.53h6.64s-.38.73-.52,1.18c-.31.94-.38,2.59-.38,2.59v23.67s.14,1.46.38,2.36c.16.54.52,1.41.52,1.41h-5.28Z"></path>
    <path class="cls-1" d="m103.1,28.21v11.16s.09,1.55.38,2.5c.14.47.52,1.27.52,1.27h-6.64s.38-.8.57-1.27c.28-.94.33-2.5.33-2.5v-10.22l-7.35-13.45s-.99-1.6-1.74-2.5c-.42-.52-1.27-1.27-1.27-1.27h7.35s-.33.71-.38,1.13c-.19,1.08.85,2.64.85,2.64l4.8,8.41,4.57-8.41s.38-.99.52-1.88c.09-.61-.19-1.89-.19-1.89h7.54s-.8.61-1.18.99c-.89.94-1.84,2.78-1.84,2.78l-6.83,12.5Z"></path>
    <path class="cls-1" d="m160.98,29.81v9.56s.12,1.65.42,2.59c.14.47.47,1.18.47,1.18h-6.64s.33-.66.47-1.06c.35-.99.42-2.71.42-2.71V15.7s-.09-1.84-.5-2.9c-.12-.33-.4-.85-.4-.85l7.21-.02c4.99-.02,11.05,3.51,11.16,8.46.07,2.9-.54,5.28-4.52,7.91l-1.55,1.04.52,1.18c.35.8,1.72,2.38,3.39,4.43,2.05,2.47,3.23,3.98,5.75,5.98l2.78,2.21h-4.1l-1.6-.89c-2.4-1.34-4.24-3.2-6.64-5.51-2.24-2.19-4.47-5.11-5.93-7.35l-.71.42Zm1.04-1.65c3.79-.87,7.46-3.74,6.83-7.35-.8-4.59-4.78-5.51-7.02-6.17l-.85-.26v14.01l1.04-.24Z"></path>
    <path class="cls-1" d="m190.92,43.28c-8.9-.54-14.15-7.21-14.39-15.78-.23-8.53,6.38-15.71,14.79-15.87,8.45-.17,15.1,6.33,15.43,15.4.35,10.08-7.49,16.77-15.83,16.25Zm3.37-3.56c4.95-.47,8.48-6.83,7.96-12.55-.75-8.03-7.37-12.46-12.36-12.2-5.77.31-9.3,6.48-8.83,12.32.61,8.03,6.76,13.05,13.24,12.44Z"></path>
    <path class="cls-1" d="m223.21,43.28c-8.9-.54-14.15-7.21-14.39-15.78-.24-8.53,6.38-15.71,14.79-15.87,8.46-.17,15.1,6.33,15.43,15.4.35,10.08-7.49,16.77-15.83,16.25Zm3.37-3.56c4.95-.47,8.48-6.83,7.96-12.55-.75-8.03-7.37-12.46-12.36-12.2-5.77.31-9.3,6.48-8.83,12.32.61,8.03,6.76,13.05,13.24,12.44Z"></path>
    <path class="cls-1" d="m257.45,33.58l-10.08-12.6v18.39s.05,1.79.42,2.8c.14.38.47.97.47.97h-6.64s.4-.68.57-1.13c.33-.97.33-2.64.33-2.64V15.73s-1.01-1.72-1.86-2.64c-.45-.47-1.25-1.15-1.25-1.15h6.74l11.3,14.81,11.35-14.81h6.59s-.66.61-1.04,1.04c-.85.94-1.93,2.73-1.93,2.73v23.67s.14,1.55.42,2.5c.14.49.47,1.27.47,1.27h-6.64s.4-.8.54-1.32c.28-.9.35-2.45.35-2.45v-18.44l-10.13,12.65Z"></path>
    <path class="cls-1" d="m292.33,16.81c-1.27-.47-2.14-.68-3.44-1.04-1.51-.42-2.47-.52-4.05-.61l-1.32-.09v10.79c1.7-.16,2.68-.14,4.38-.23,2.07-.12,3.46,0,5.6.19l-2.68,4.38c-1.39-.59-2.28-.89-3.77-1.18-1.32-.26-2.17-.38-3.53-.38v11.4h1.41c1.72,0,2.73-.26,4.43-.52,2.92-.45,4.45-.94,7.11-1.93l-2.4,5.56h-16.3s.31-.54.45-.89c.4-1.04.45-2.87.45-2.87V15.7s.09-1.77-.31-2.73c-.17-.42-.59-1.04-.59-1.04h16.96l-2.4,4.88Z"></path>
    <path class="cls-1" d="m23.29,18.26s-3.41-2.92-7.57-2.82c-3.71.07-6.83,1.95-6.83,4.33-.04,2.87,3.31,4.03,6.83,5.56,6.14,2.66,9.95,5.48,9.47,10.22-.55,4.9-4.77,7.75-12.63,7.59-3.6-.07-6.76-.35-9.04-2.19v-6.26l2.35,2.7c2.06,1.37,3.86,2.19,6.83,2.26,4.08.07,7.5-2.12,6.98-4.57-.7-3.25-4.56-4-8.6-5.79-5.07-2.26-6.87-3.6-7.35-8.15-.51-4.76,4.23-9.68,12.35-9.61,3.6.02,6.54.38,7.2,1.37v5.37Z"></path>
    <path class="cls-1" d="m147.48,25.57l-1.4,1.04,1.78,1.08c3.11,1.88,5.2,4.58,5.42,7.62.44,5.39-7.45,7.83-14.76,7.83h-9.97s.48-.66.67-1.06c.48-1.04,1.43-2.8,1.43-2.8V15.63s-1.05-1.48-1.4-2.36c-.19-.52-.7-1.34-.7-1.34h10.35c6.16,0,12.67,3.44,12.51,8.22-.06,2.38-1.81,3.84-3.94,5.42Zm-8.16.28c3.02-.52,7.29-3.13,7.14-5.56-.29-4.67-6.06-5.2-9.27-5.37l-.89-.05v11.49l3.02-.52Zm.03,14.41c2-.07,8.69-1.22,8.26-5.65-.32-3.34-4.58-6.08-9.15-7.07l-2.16-.47v13.28l3.05-.09Z"></path>
</svg>